<?xml version="1.0" encoding="UTF-8" standalone="no"?>
<!-- Created with Inkscape (http://www.inkscape.org/) -->

<svg
   xmlns:dc="http://purl.org/dc/elements/1.1/"
   xmlns:cc="http://creativecommons.org/ns#"
   xmlns:rdf="http://www.w3.org/1999/02/22-rdf-syntax-ns#"
   xmlns:svg="http://www.w3.org/2000/svg"
   xmlns="http://www.w3.org/2000/svg"
   xmlns:sodipodi="http://sodipodi.sourceforge.net/DTD/sodipodi-0.dtd"
   xmlns:inkscape="http://www.inkscape.org/namespaces/inkscape"
   width="120mm"
   height="120mm"
   viewBox="0 0 120 120"
   version="1.1"
   id="svg811"
   inkscape:version="0.92.3 (2405546, 2018-03-11)"
   sodipodi:docname="gof.svg">
  <defs
     id="defs805" />
  <sodipodi:namedview
     id="base"
     pagecolor="#ffffff"
     bordercolor="#666666"
     borderopacity="1.0"
     inkscape:pageopacity="0.0"
     inkscape:pageshadow="2"
     inkscape:zoom="0.49497475"
     inkscape:cx="384.36494"
     inkscape:cy="270.03869"
     inkscape:document-units="mm"
     inkscape:current-layer="layer1"
     showgrid="false"
     inkscape:window-width="1311"
     inkscape:window-height="704"
     inkscape:window-x="55"
     inkscape:window-y="27"
     inkscape:window-maximized="1" />
  <metadata
     id="metadata808">
    <rdf:RDF>
      <cc:Work
         rdf:about="">
        <dc:format>image/svg+xml</dc:format>
        <dc:type
           rdf:resource="http://purl.org/dc/dcmitype/StillImage" />
        <dc:title></dc:title>
      </cc:Work>
    </rdf:RDF>
  </metadata>
  <g
     inkscape:label="Layer 1"
     inkscape:groupmode="layer"
     id="layer1"
     transform="translate(0,-177)">
    <rect
       style="fill:#f9f9f9;stroke:#000000;stroke-width:0.16687287"
       id="rect1522"
       width="119.83313"
       height="119.83313"
       x="0.08343643"
       y="177.08344" />
    <rect
       style="fill:#ffffff;stroke:#000000;stroke-width:0.16687287"
       id="rect815"
       width="12.614014"
       height="12.614013"
       x="3.2369399"
       y="265.31311"
       ry="2.5228026" />
    <rect
       style="fill:#e6e6e6;stroke:#000000;stroke-width:0.16687287"
       id="rect817"
       width="6.3070068"
       height="6.3070064"
       x="19.004456"
       y="268.46661"
       ry="1.2614013" />
    <rect
       style="fill:#ffffff;stroke:#000000;stroke-width:0.16687287"
       id="rect815-5"
       width="12.614014"
       height="12.614013"
       x="28.464966"
       y="265.31311"
       ry="2.5228026" />
    <rect
       style="fill:#e6e6e6;stroke:#000000;stroke-width:0.16687287"
       id="rect817-9"
       width="6.3070068"
       height="6.3070064"
       x="44.232479"
       y="268.46661"
       ry="1.2614013" />
    <rect
       style="fill:#ffffff;stroke:#000000;stroke-width:0.16687287"
       id="rect815-4"
       width="12.614014"
       height="12.614013"
       x="53.692993"
       y="265.31311"
       ry="2.5228026" />
    <rect
       style="fill:#e6e6e6;stroke:#000000;stroke-width:0.16687287"
       id="rect817-90"
       width="6.3070068"
       height="6.3070064"
       x="69.46051"
       y="268.46661"
       ry="1.2614013" />
    <rect
       style="fill:#ffffff;stroke:#000000;stroke-width:0.16687287"
       id="rect815-5-9"
       width="12.614014"
       height="12.614013"
       x="78.921021"
       y="265.31311"
       ry="2.5228026" />
    <rect
       style="fill:#e6e6e6;stroke:#000000;stroke-width:0.16687287"
       id="rect817-9-1"
       width="6.3070068"
       height="6.3070064"
       x="94.68853"
       y="268.46661"
       ry="1.2614013" />
    <rect
       style="fill:#ffffff;stroke:#000000;stroke-width:0.16687287"
       id="rect815-7"
       width="12.614014"
       height="12.614013"
       x="104.14905"
       y="265.31311"
       ry="2.5228026" />
    <g
       aria-label="="
       style="font-style:normal;font-weight:normal;font-size:7.05555534px;line-height:1.25;font-family:sans-serif;letter-spacing:0px;word-spacing:0px;fill:#000000;fill-opacity:1;stroke:none;stroke-width:0.26458332"
       id="text878"
       transform="translate(-21.166667,158.75004)">
      <path
         d="m -32.892295,-25.215844 h 4.416612 v 0.578776 h -4.416612 z m 0,1.405599 h 4.416612 v 0.585666 h -4.416612 z"
         style="stroke-width:0.26458332"
         id="path908"
         inkscape:connector-curvature="0" />
    </g>
    <g
       aria-label="+"
       style="font-style:normal;font-weight:normal;font-size:7.05555534px;line-height:1.25;font-family:sans-serif;letter-spacing:0px;word-spacing:0px;fill:#000000;fill-opacity:1;stroke:none;stroke-width:0.26458332"
       id="text882"
       transform="translate(-21.166667,158.75004)">
      <path
         d="m -3.9362673,-25.679453 v 1.918918 h 1.9189181 v 0.585666 h -1.9189181 v 1.918918 h -0.578776 v -1.918918 h -1.9189182 v -0.585666 h 1.9189182 v -1.918918 z"
         style="stroke-width:0.26458332"
         id="path905"
         inkscape:connector-curvature="0" />
    </g>
    <g
       aria-label="-"
       style="font-style:normal;font-weight:normal;font-size:7.05555534px;line-height:1.25;font-family:sans-serif;letter-spacing:0px;word-spacing:0px;fill:#000000;fill-opacity:1;stroke:none;stroke-width:0.26458332"
       id="text886"
       transform="translate(-21.166667,158.75004)">
      <path
         d="m -20.822156,-26.872934 h 1.856906 v 0.564996 h -1.856906 z"
         style="stroke-width:0.26458332"
         id="path902"
         inkscape:connector-curvature="0" />
    </g>
    <g
       aria-label="*"
       style="font-style:normal;font-weight:normal;font-size:7.05555534px;line-height:1.25;font-family:sans-serif;letter-spacing:0px;word-spacing:0px;fill:#000000;fill-opacity:1;stroke:none;stroke-width:0.26458332"
       id="text890"
       transform="translate(-21.166667,158.75004)">
      <path
         d="m -1.2180873,-42.938891 -1.2367892,0.668349 1.2367892,0.671794 -0.1998155,0.337619 -1.1575521,-0.699354 v 1.298801 h -0.3927409 v -1.298801 l -1.157552,0.699354 -0.1998155,-0.337619 1.2367892,-0.671794 -1.2367892,-0.668349 0.1998155,-0.341064 1.157552,0.699354 v -1.298801 h 0.3927409 v 1.298801 l 1.1575521,-0.699354 z"
         style="stroke-width:0.26458332"
         id="path899"
         inkscape:connector-curvature="0" />
    </g>
    <g
       aria-label="/"
       style="font-style:normal;font-weight:normal;font-size:7.05555534px;line-height:1.25;font-family:sans-serif;letter-spacing:0px;word-spacing:0px;fill:#000000;fill-opacity:1;stroke:none;stroke-width:0.26458332"
       id="text894"
       transform="translate(-21.166667,158.75004)">
      <path
         d="m -24.666882,-44.164359 h 0.585666 l -1.79145,5.798095 h -0.585666 z"
         style="stroke-width:0.26458332"
         id="path896"
         inkscape:connector-curvature="0" />
    </g>
    <g
       transform="matrix(0.63070067,0,0,0.63070067,117.26272,287.07241)"
       aria-label="="
       style="font-style:normal;font-weight:normal;font-size:7.05555534px;line-height:1.25;font-family:sans-serif;letter-spacing:0px;word-spacing:0px;fill:#000000;fill-opacity:1;stroke:none;stroke-width:0.26458332"
       id="text878-7">
      <path
         inkscape:connector-curvature="0"
         d="m -32.892295,-25.215844 h 4.416612 v 0.578776 h -4.416612 z m 0,1.405599 h 4.416612 v 0.585666 h -4.416612 z"
         style="stroke-width:0.26458332"
         id="path908-1" />
    </g>
    <rect
       style="fill:#ffffff;stroke:#000000;stroke-width:0.16687287"
       id="rect815-1"
       width="12.614014"
       height="12.614013"
       x="3.2369399"
       y="229.63951"
       ry="2.5228026" />
    <rect
       style="fill:#e6e6e6;stroke:#000000;stroke-width:0.16687287"
       id="rect817-5"
       width="6.3070068"
       height="6.3070064"
       x="19.004457"
       y="232.79301"
       ry="1.2614013" />
    <rect
       style="fill:#ffffff;stroke:#000000;stroke-width:0.16687287"
       id="rect815-5-97"
       width="12.614014"
       height="12.614013"
       x="28.464966"
       y="229.63951"
       ry="2.5228026" />
    <rect
       style="fill:#e6e6e6;stroke:#000000;stroke-width:0.16687287"
       id="rect817-9-7"
       width="6.3070068"
       height="6.3070064"
       x="44.232483"
       y="232.79301"
       ry="1.2614013" />
    <rect
       style="fill:#ffffff;stroke:#000000;stroke-width:0.16687287"
       id="rect815-4-6"
       width="12.614014"
       height="12.614013"
       x="53.692993"
       y="229.63951"
       ry="2.5228026" />
    <rect
       style="fill:#e6e6e6;stroke:#000000;stroke-width:0.16687287"
       id="rect817-90-7"
       width="6.3070068"
       height="6.3070064"
       x="69.46051"
       y="232.79301"
       ry="1.2614013" />
    <rect
       style="fill:#ffffff;stroke:#000000;stroke-width:0.16687287"
       id="rect815-5-9-3"
       width="12.614014"
       height="12.614013"
       x="78.921021"
       y="229.63951"
       ry="2.5228026" />
    <rect
       style="fill:#e6e6e6;stroke:#000000;stroke-width:0.16687287"
       id="rect817-9-1-6"
       width="6.3070068"
       height="6.3070064"
       x="94.68853"
       y="232.79301"
       ry="1.2614013" />
    <rect
       style="fill:#ffffff;stroke:#000000;stroke-width:0.16687287"
       id="rect815-7-5"
       width="12.614014"
       height="12.614013"
       x="104.14905"
       y="229.63951"
       ry="2.5228026" />
    <g
       transform="matrix(0.63070067,0,0,0.63070067,117.26272,251.39881)"
       aria-label="="
       style="font-style:normal;font-weight:normal;font-size:7.05555534px;line-height:1.25;font-family:sans-serif;letter-spacing:0px;word-spacing:0px;fill:#000000;fill-opacity:1;stroke:none;stroke-width:0.26458332"
       id="text878-7-6">
      <path
         inkscape:connector-curvature="0"
         d="m -32.892295,-25.215844 h 4.416612 v 0.578776 h -4.416612 z m 0,1.405599 h 4.416612 v 0.585666 h -4.416612 z"
         style="stroke-width:0.26458332"
         id="path908-1-3" />
    </g>
    <rect
       style="fill:#ffffff;stroke:#000000;stroke-width:0.16687287"
       id="rect815-1-9"
       width="12.614014"
       height="12.614013"
       x="3.2369401"
       y="193.91139"
       ry="2.5228026" />
    <rect
       style="fill:#e6e6e6;stroke:#000000;stroke-width:0.16687287"
       id="rect817-5-4"
       width="6.3070068"
       height="6.3070064"
       x="19.004457"
       y="197.0649"
       ry="1.2614013" />
    <rect
       style="fill:#ffffff;stroke:#000000;stroke-width:0.16687287"
       id="rect815-5-97-8"
       width="12.614014"
       height="12.614013"
       x="28.464966"
       y="193.91139"
       ry="2.5228026" />
    <rect
       style="fill:#e6e6e6;stroke:#000000;stroke-width:0.16687287"
       id="rect817-9-7-1"
       width="6.3070068"
       height="6.3070064"
       x="44.232483"
       y="197.0649"
       ry="1.2614013" />
    <rect
       style="fill:#ffffff;stroke:#000000;stroke-width:0.16687287"
       id="rect815-4-6-2"
       width="12.614014"
       height="12.614013"
       x="53.692993"
       y="193.91139"
       ry="2.5228026" />
    <rect
       style="fill:#e6e6e6;stroke:#000000;stroke-width:0.16687287"
       id="rect817-90-7-9"
       width="6.3070068"
       height="6.3070064"
       x="69.46051"
       y="197.0649"
       ry="1.2614013" />
    <rect
       style="fill:#ffffff;stroke:#000000;stroke-width:0.16687287"
       id="rect815-5-9-3-3"
       width="12.614014"
       height="12.614013"
       x="78.921028"
       y="193.91139"
       ry="2.5228026" />
    <rect
       style="fill:#e6e6e6;stroke:#000000;stroke-width:0.16687287"
       id="rect817-9-1-6-9"
       width="6.3070068"
       height="6.3070064"
       x="94.68853"
       y="197.0649"
       ry="1.2614013" />
    <rect
       style="fill:#ffffff;stroke:#000000;stroke-width:0.16687287"
       id="rect815-7-5-0"
       width="12.614014"
       height="12.614013"
       x="104.14905"
       y="193.91139"
       ry="2.5228026" />
    <g
       transform="matrix(0.63070067,0,0,0.63070067,117.26272,215.67071)"
       aria-label="="
       style="font-style:normal;font-weight:normal;font-size:7.05555534px;line-height:1.25;font-family:sans-serif;letter-spacing:0px;word-spacing:0px;fill:#000000;fill-opacity:1;stroke:none;stroke-width:0.26458332"
       id="text878-7-6-8">
      <path
         inkscape:connector-curvature="0"
         d="m -32.892295,-25.215844 h 4.416612 v 0.578776 h -4.416612 z m 0,1.405599 h 4.416612 v 0.585666 h -4.416612 z"
         style="stroke-width:0.26458332"
         id="path908-1-3-8" />
    </g>
    <text
       xml:space="preserve"
       style="font-style:normal;font-weight:normal;font-size:7.05555534px;line-height:1.25;font-family:sans-serif;letter-spacing:0px;word-spacing:0px;fill:#000000;fill-opacity:1;stroke:none;stroke-width:0.26458332"
       x="-86.595329"
       y="147.32906"
       id="text1040"><tspan
         sodipodi:role="line"
         id="tspan1038"
         x="-86.595329"
         y="153.57156"
         style="stroke-width:0.26458332" /></text>
    <g
       aria-label="1"
       style="font-style:normal;font-weight:normal;font-size:7.05555534px;line-height:1.25;font-family:sans-serif;letter-spacing:0px;word-spacing:0px;fill:#000000;fill-opacity:1;stroke:none;stroke-width:0.26458332"
       id="text1047">
      <path
         d="m -86.667599,138.8206 h 1.989543 v -6.86693 l -2.164382,0.43408 v -1.10932 l 2.152324,-0.43408 h 1.217841 v 7.97625 h 1.989543 v 1.02492 h -5.184869 z"
         style="font-size:12.34722233px;stroke-width:0.26458332"
         id="path1049"
         inkscape:connector-curvature="0" />
    </g>
    <g
       transform="matrix(0.63070067,0,0,0.63070067,62.753237,114.9837)"
       aria-label="1"
       style="font-style:normal;font-weight:normal;font-size:7.05555534px;line-height:1.25;font-family:sans-serif;letter-spacing:0px;word-spacing:0px;fill:#000000;fill-opacity:1;stroke:none;stroke-width:0.26458332"
       id="text1047-5">
      <path
         inkscape:connector-curvature="0"
         d="m -86.667599,138.8206 h 1.989543 v -6.86693 l -2.164382,0.43408 v -1.10932 l 2.152324,-0.43408 h 1.217841 v 7.97625 h 1.989543 v 1.02492 h -5.184869 z"
         style="font-size:12.34722233px;stroke-width:0.26458332"
         id="path1049-0" />
    </g>
    <g
       transform="matrix(0.63070067,0,0,0.63070067,87.981696,114.85159)"
       aria-label="1"
       style="font-style:normal;font-weight:normal;font-size:7.05555534px;line-height:1.25;font-family:sans-serif;letter-spacing:0px;word-spacing:0px;fill:#000000;fill-opacity:1;stroke:none;stroke-width:0.26458332"
       id="text1047-5-9">
      <path
         inkscape:connector-curvature="0"
         d="m -86.667599,138.8206 h 1.989543 v -6.86693 l -2.164382,0.43408 v -1.10932 l 2.152324,-0.43408 h 1.217841 v 7.97625 h 1.989543 v 1.02492 h -5.184869 z"
         style="font-size:12.34722233px;stroke-width:0.26458332"
         id="path1049-0-6" />
    </g>
    <g
       transform="matrix(0.63070067,0,0,0.63070067,113.01264,114.85159)"
       aria-label="1"
       style="font-style:normal;font-weight:normal;font-size:7.05555534px;line-height:1.25;font-family:sans-serif;letter-spacing:0px;word-spacing:0px;fill:#000000;fill-opacity:1;stroke:none;stroke-width:0.26458332"
       id="text1047-5-9-3">
      <path
         inkscape:connector-curvature="0"
         d="m -86.667599,138.8206 h 1.989543 v -6.86693 l -2.164382,0.43408 v -1.10932 l 2.152324,-0.43408 h 1.217841 v 7.97625 h 1.989543 v 1.02492 h -5.184869 z"
         style="font-size:12.34722233px;stroke-width:0.26458332"
         id="path1049-0-6-8" />
    </g>
    <g
       transform="matrix(0.63070067,0,0,0.63070067,138.37732,114.85159)"
       aria-label="1"
       style="font-style:normal;font-weight:normal;font-size:7.05555534px;line-height:1.25;font-family:sans-serif;letter-spacing:0px;word-spacing:0px;fill:#000000;fill-opacity:1;stroke:none;stroke-width:0.26458332"
       id="text1047-5-9-3-5">
      <path
         inkscape:connector-curvature="0"
         d="m -86.667599,138.8206 h 1.989543 v -6.86693 l -2.164382,0.43408 v -1.10932 l 2.152324,-0.43408 h 1.217841 v 7.97625 h 1.989543 v 1.02492 h -5.184869 z"
         style="font-size:12.34722233px;stroke-width:0.26458332"
         id="path1049-0-6-8-6" />
    </g>
    <g
       aria-label="4"
       style="font-style:normal;font-weight:normal;font-size:7.05555534px;line-height:1.25;font-family:sans-serif;letter-spacing:0px;word-spacing:0px;fill:#000000;fill-opacity:1;stroke:none;stroke-width:0.26458332"
       id="text1126">
      <path
         d="m -53.919926,166.21765 -3.074747,4.80504 h 3.074747 z m -0.319532,-1.06109 h 1.531345 v 5.86613 h 1.284159 v 1.01286 h -1.284159 v 2.12218 h -1.211813 v -2.12218 h -4.06349 v -1.17564 z"
         style="font-size:12.34722233px;stroke-width:0.26458332"
         id="path1128"
         inkscape:connector-curvature="0" />
    </g>
    <g
       transform="matrix(0.63070067,0,0,0.63070067,144.73316,93.210857)"
       aria-label="4"
       style="font-style:normal;font-weight:normal;font-size:7.05555534px;line-height:1.25;font-family:sans-serif;letter-spacing:0px;word-spacing:0px;fill:#000000;fill-opacity:1;stroke:none;stroke-width:0.26458332"
       id="text1126-1">
      <path
         inkscape:connector-curvature="0"
         d="m -53.919926,166.21765 -3.074747,4.80504 h 3.074747 z m -0.319532,-1.06109 h 1.531345 v 5.86613 h 1.284159 v 1.01286 h -1.284159 v 2.12218 h -1.211813 v -2.12218 h -4.06349 v -1.17564 z"
         style="font-size:12.34722233px;stroke-width:0.26458332"
         id="path1128-1" />
    </g>
    <g
       aria-label="+"
       style="font-style:normal;font-weight:normal;font-size:7.05555534px;line-height:1.25;font-family:sans-serif;letter-spacing:0px;word-spacing:0px;fill:#000000;fill-opacity:1;stroke:none;stroke-width:0.26458332"
       id="text882-5"
       transform="matrix(0.63070067,0,0,0.63070067,24.692347,214.96714)">
      <path
         d="m -3.9362673,-25.679453 v 1.918918 h 1.9189181 v 0.585666 h -1.9189181 v 1.918918 h -0.578776 v -1.918918 h -1.9189182 v -0.585666 h 1.9189182 v -1.918918 z"
         style="stroke-width:0.26458332"
         id="path905-9"
         inkscape:connector-curvature="0" />
    </g>
    <g
       aria-label="+"
       style="font-style:normal;font-weight:normal;font-size:7.05555534px;line-height:1.25;font-family:sans-serif;letter-spacing:0px;word-spacing:0px;fill:#000000;fill-opacity:1;stroke:none;stroke-width:0.26458332"
       id="text882-5-8"
       transform="matrix(0.63070067,0,0,0.63070067,50.057021,214.96714)">
      <path
         d="m -3.9362673,-25.679453 v 1.918918 h 1.9189181 v 0.585666 h -1.9189181 v 1.918918 h -0.578776 v -1.918918 h -1.9189182 v -0.585666 h 1.9189182 v -1.918918 z"
         style="stroke-width:0.26458332"
         id="path905-9-4"
         inkscape:connector-curvature="0" />
    </g>
    <g
       aria-label="+"
       style="font-style:normal;font-weight:normal;font-size:7.05555534px;line-height:1.25;font-family:sans-serif;letter-spacing:0px;word-spacing:0px;fill:#000000;fill-opacity:1;stroke:none;stroke-width:0.26458332"
       id="text882-5-8-8"
       transform="matrix(0.63070067,0,0,0.63070067,75.232474,214.90408)">
      <path
         d="m -3.9362673,-25.679453 v 1.918918 h 1.9189181 v 0.585666 h -1.9189181 v 1.918918 h -0.578776 v -1.918918 h -1.9189182 v -0.585666 h 1.9189182 v -1.918918 z"
         style="stroke-width:0.26458332"
         id="path905-9-4-1"
         inkscape:connector-curvature="0" />
    </g>
    <g
       aria-label="+"
       style="font-style:normal;font-weight:normal;font-size:7.05555534px;line-height:1.25;font-family:sans-serif;letter-spacing:0px;word-spacing:0px;fill:#000000;fill-opacity:1;stroke:none;stroke-width:0.26458332"
       id="text882-0"
       transform="matrix(0.63070067,0,0,0.63070067,24.740025,250.86869)">
      <path
         d="m -3.9362673,-25.679453 v 1.918918 h 1.9189181 v 0.585666 h -1.9189181 v 1.918918 h -0.578776 v -1.918918 h -1.9189182 v -0.585666 h 1.9189182 v -1.918918 z"
         style="stroke-width:0.26458332"
         id="path905-3"
         inkscape:connector-curvature="0" />
    </g>
    <g
       aria-label="+"
       style="font-style:normal;font-weight:normal;font-size:7.05555534px;line-height:1.25;font-family:sans-serif;letter-spacing:0px;word-spacing:0px;fill:#000000;fill-opacity:1;stroke:none;stroke-width:0.26458332"
       id="text882-0-0"
       transform="matrix(0.63070067,0,0,0.63070067,75.135642,250.53493)">
      <path
         d="m -3.9362673,-25.679453 v 1.918918 h 1.9189181 v 0.585666 h -1.9189181 v 1.918918 h -0.578776 v -1.918918 h -1.9189182 v -0.585666 h 1.9189182 v -1.918918 z"
         style="stroke-width:0.26458332"
         id="path905-3-4"
         inkscape:connector-curvature="0" />
    </g>
    <g
       aria-label="/"
       style="font-style:normal;font-weight:normal;font-size:7.05555534px;line-height:1.25;font-family:sans-serif;letter-spacing:0px;word-spacing:0px;fill:#000000;fill-opacity:1;stroke:none;stroke-width:0.26458332"
       id="text894-4"
       transform="matrix(0.63070067,0,0,0.63070067,63.186532,261.99828)">
      <path
         d="m -24.666882,-44.164359 h 0.585666 l -1.79145,5.798095 h -0.585666 z"
         style="stroke-width:0.26458332"
         id="path896-4"
         inkscape:connector-curvature="0" />
    </g>
    <g
       transform="matrix(0.63070067,0,0,0.63070067,62.80771,150.56239)"
       aria-label="1"
       style="font-style:normal;font-weight:normal;font-size:7.05555534px;line-height:1.25;font-family:sans-serif;letter-spacing:0px;word-spacing:0px;fill:#000000;fill-opacity:1;stroke:none;stroke-width:0.26458332"
       id="text1047-4">
      <path
         inkscape:connector-curvature="0"
         d="m -86.667599,138.8206 h 1.989543 v -6.86693 l -2.164382,0.43408 v -1.10932 l 2.152324,-0.43408 h 1.217841 v 7.97625 h 1.989543 v 1.02492 h -5.184869 z"
         style="font-size:12.34722233px;stroke-width:0.26458332"
         id="path1049-7" />
    </g>
    <g
       transform="matrix(0.63070067,0,0,0.63070067,119.79758,128.68326)"
       aria-label="4"
       style="font-style:normal;font-weight:normal;font-size:7.05555534px;line-height:1.25;font-family:sans-serif;letter-spacing:0px;word-spacing:0px;fill:#000000;fill-opacity:1;stroke:none;stroke-width:0.26458332"
       id="text1126-6">
      <path
         inkscape:connector-curvature="0"
         d="m -53.919926,166.21765 -3.074747,4.80504 h 3.074747 z m -0.319532,-1.06109 h 1.531345 v 5.86613 h 1.284159 v 1.01286 h -1.284159 v 2.12218 h -1.211813 v -2.12218 h -4.06349 v -1.17564 z"
         style="font-size:12.34722233px;stroke-width:0.26458332"
         id="path1128-3" />
    </g>
    <g
       aria-label="2"
       style="font-style:normal;font-weight:normal;font-size:7.05555534px;line-height:1.25;font-family:sans-serif;letter-spacing:0px;word-spacing:0px;fill:#000000;fill-opacity:1;stroke:none;stroke-width:0.26458332"
       id="text1295">
      <path
         d="m -106.48778,158.01377 h 4.25039 v 1.02491 h -5.71541 v -1.02491 q 0.69332,-0.71745 1.88705,-1.92323 1.19975,-1.21181 1.50723,-1.56149 0.5848,-0.65715 0.8139,-1.10932 0.23513,-0.4582 0.23513,-0.89831 0,-0.71744 -0.50643,-1.16961 -0.5004,-0.45217 -1.30827,-0.45217 -0.57275,0 -1.21182,0.19896 -0.63303,0.19895 -1.3565,0.60289 v -1.2299 q 0.73553,-0.29542 1.37459,-0.44614 0.63907,-0.15072 1.16961,-0.15072 1.39871,0 2.2307,0.69935 0.83199,0.69936 0.83199,1.86897 0,0.55466 -0.21101,1.05506 -0.20499,0.49437 -0.75362,1.16961 -0.15072,0.17483 -0.95859,1.01285 -0.80788,0.83199 -2.27894,2.3332 z"
         style="font-size:12.34722233px;stroke-width:0.26458332"
         id="path1311"
         inkscape:connector-curvature="0" />
    </g>
    <g
       aria-label="3"
       style="font-style:normal;font-weight:normal;font-size:7.05555534px;line-height:1.25;font-family:sans-serif;letter-spacing:0px;word-spacing:0px;fill:#000000;fill-opacity:1;stroke:none;stroke-width:0.26458332"
       id="text1299">
      <path
         d="m -79.278666,164.39077 q 0.874193,0.1869 1.362535,0.77773 0.494371,0.59083 0.494371,1.459 0,1.33239 -0.916395,2.06189 -0.916395,0.7295 -2.604492,0.7295 -0.566718,0 -1.16961,-0.11455 -0.596863,-0.10852 -1.235928,-0.33159 v -1.17564 q 0.506429,0.29542 1.109321,0.44614 0.602891,0.15072 1.260043,0.15072 1.145494,0 1.742357,-0.45217 0.602892,-0.45217 0.602892,-1.3143 0,-0.79582 -0.560689,-1.24196 -0.554661,-0.45217 -1.549432,-0.45217 h -1.049032 v -1.0008 h 1.097263 q 0.898309,0 1.374593,-0.3557 0.476285,-0.36174 0.476285,-1.03698 0,-0.69332 -0.494371,-1.06109 -0.488343,-0.37379 -1.404738,-0.37379 -0.5004,0 -1.073147,0.10852 -0.572747,0.10852 -1.260044,0.33762 v -1.0852 q 0.693326,-0.19293 1.296217,-0.28939 0.608921,-0.0965 1.145495,-0.0965 1.38665,0 2.194525,0.63303 0.807875,0.62701 0.807875,1.70016 0,0.74758 -0.428053,1.26607 -0.428053,0.51246 -1.217841,0.71141 z"
         style="font-size:12.34722233px;stroke-width:0.26458332"
         id="path1308"
         inkscape:connector-curvature="0" />
    </g>
    <g
       aria-label="5"
       style="font-style:normal;font-weight:normal;font-size:7.05555534px;line-height:1.25;font-family:sans-serif;letter-spacing:0px;word-spacing:0px;fill:#000000;fill-opacity:1;stroke:none;stroke-width:0.26458332"
       id="text1303">
      <path
         d="m -103.74499,162.51073 h 4.780935 v 1.02491 h -3.665585 v 2.20659 q 0.26528,-0.0904 0.53055,-0.13264 0.26527,-0.0482 0.53054,-0.0482 1.50723,0 2.387454,0.82596 0.880222,0.82596 0.880222,2.23673 0,1.45297 -0.904338,2.26084 -0.904338,0.80185 -2.550228,0.80185 -0.56672,0 -1.15756,-0.0965 -0.5848,-0.0965 -1.21181,-0.28939 v -1.22387 q 0.5426,0.29542 1.12138,0.44011 0.57878,0.14469 1.22387,0.14469 1.043,0 1.65192,-0.54863 0.608924,-0.54863 0.608924,-1.48914 0,-0.94051 -0.608924,-1.48914 -0.60892,-0.54863 -1.65192,-0.54863 -0.48834,0 -0.97668,0.10852 -0.48232,0.10852 -0.98875,0.33762 z"
         style="font-size:12.34722233px;stroke-width:0.26458332"
         id="path1305"
         inkscape:connector-curvature="0" />
    </g>
    <g
       transform="matrix(0.63070067,0,0,0.63070067,100.99314,138.31787)"
       aria-label="2"
       style="font-style:normal;font-weight:normal;font-size:7.05555534px;line-height:1.25;font-family:sans-serif;letter-spacing:0px;word-spacing:0px;fill:#000000;fill-opacity:1;stroke:none;stroke-width:0.26458332"
       id="text1295-1">
      <path
         inkscape:connector-curvature="0"
         d="m -106.48778,158.01377 h 4.25039 v 1.02491 h -5.71541 v -1.02491 q 0.69332,-0.71745 1.88705,-1.92323 1.19975,-1.21181 1.50723,-1.56149 0.5848,-0.65715 0.8139,-1.10932 0.23513,-0.4582 0.23513,-0.89831 0,-0.71744 -0.50643,-1.16961 -0.5004,-0.45217 -1.30827,-0.45217 -0.57275,0 -1.21182,0.19896 -0.63303,0.19895 -1.3565,0.60289 v -1.2299 q 0.73553,-0.29542 1.37459,-0.44614 0.63907,-0.15072 1.16961,-0.15072 1.39871,0 2.2307,0.69935 0.83199,0.69936 0.83199,1.86897 0,0.55466 -0.21101,1.05506 -0.20499,0.49437 -0.75362,1.16961 -0.15072,0.17483 -0.95859,1.01285 -0.80788,0.83199 -2.27894,2.3332 z"
         style="font-size:12.34722233px;stroke-width:0.26458332"
         id="path1311-7" />
    </g>
    <g
       transform="matrix(0.63070067,0,0,0.63070067,110.48707,132.01692)"
       aria-label="3"
       style="font-style:normal;font-weight:normal;font-size:7.05555534px;line-height:1.25;font-family:sans-serif;letter-spacing:0px;word-spacing:0px;fill:#000000;fill-opacity:1;stroke:none;stroke-width:0.26458332"
       id="text1299-5">
      <path
         inkscape:connector-curvature="0"
         d="m -79.278666,164.39077 q 0.874193,0.1869 1.362535,0.77773 0.494371,0.59083 0.494371,1.459 0,1.33239 -0.916395,2.06189 -0.916395,0.7295 -2.604492,0.7295 -0.566718,0 -1.16961,-0.11455 -0.596863,-0.10852 -1.235928,-0.33159 v -1.17564 q 0.506429,0.29542 1.109321,0.44614 0.602891,0.15072 1.260043,0.15072 1.145494,0 1.742357,-0.45217 0.602892,-0.45217 0.602892,-1.3143 0,-0.79582 -0.560689,-1.24196 -0.554661,-0.45217 -1.549432,-0.45217 h -1.049032 v -1.0008 h 1.097263 q 0.898309,0 1.374593,-0.3557 0.476285,-0.36174 0.476285,-1.03698 0,-0.69332 -0.494371,-1.06109 -0.488343,-0.37379 -1.404738,-0.37379 -0.5004,0 -1.073147,0.10852 -0.572747,0.10852 -1.260044,0.33762 v -1.0852 q 0.693326,-0.19293 1.296217,-0.28939 0.608921,-0.0965 1.145495,-0.0965 1.38665,0 2.194525,0.63303 0.807875,0.62701 0.807875,1.70016 0,0.74758 -0.428053,1.26607 -0.428053,0.51246 -1.217841,0.71141 z"
         style="font-size:12.34722233px;stroke-width:0.26458332"
         id="path1308-9" />
    </g>
    <g
       transform="matrix(0.63070067,0,0,0.63070067,174.20957,130.48756)"
       aria-label="5"
       style="font-style:normal;font-weight:normal;font-size:7.05555534px;line-height:1.25;font-family:sans-serif;letter-spacing:0px;word-spacing:0px;fill:#000000;fill-opacity:1;stroke:none;stroke-width:0.26458332"
       id="text1303-6">
      <path
         inkscape:connector-curvature="0"
         d="m -103.74499,162.51073 h 4.780935 v 1.02491 h -3.665585 v 2.20659 q 0.26528,-0.0904 0.53055,-0.13264 0.26527,-0.0482 0.53054,-0.0482 1.50723,0 2.387454,0.82596 0.880222,0.82596 0.880222,2.23673 0,1.45297 -0.904338,2.26084 -0.904338,0.80185 -2.550228,0.80185 -0.56672,0 -1.15756,-0.0965 -0.5848,-0.0965 -1.21181,-0.28939 v -1.22387 q 0.5426,0.29542 1.12138,0.44011 0.57878,0.14469 1.22387,0.14469 1.043,0 1.65192,-0.54863 0.608924,-0.54863 0.608924,-1.48914 0,-0.94051 -0.608924,-1.48914 -0.60892,-0.54863 -1.65192,-0.54863 -0.48834,0 -0.97668,0.10852 -0.48232,0.10852 -0.98875,0.33762 z"
         style="font-size:12.34722233px;stroke-width:0.26458332"
         id="path1305-2" />
    </g>
    <g
       aria-label="/"
       style="font-style:normal;font-weight:normal;font-size:7.05555534px;line-height:1.25;font-family:sans-serif;letter-spacing:0px;word-spacing:0px;fill:#000000;fill-opacity:1;stroke:none;stroke-width:0.26458332"
       id="text894-1"
       transform="matrix(0.63070067,0,0,0.63070067,38.012566,297.70911)">
      <path
         d="m -24.666882,-44.164359 h 0.585666 l -1.79145,5.798095 h -0.585666 z"
         style="stroke-width:0.26458332"
         id="path896-7"
         inkscape:connector-curvature="0" />
    </g>
    <g
       aria-label="*"
       style="font-style:normal;font-weight:normal;font-size:7.05555534px;line-height:1.25;font-family:sans-serif;letter-spacing:0px;word-spacing:0px;fill:#000000;fill-opacity:1;stroke:none;stroke-width:0.26458332"
       id="text890-8"
       transform="matrix(0.63070067,0,0,0.63070067,48.987618,298.48177)">
      <path
         d="m -1.2180873,-42.938891 -1.2367892,0.668349 1.2367892,0.671794 -0.1998155,0.337619 -1.1575521,-0.699354 v 1.298801 h -0.3927409 v -1.298801 l -1.157552,0.699354 -0.1998155,-0.337619 1.2367892,-0.671794 -1.2367892,-0.668349 0.1998155,-0.341064 1.157552,0.699354 v -1.298801 h 0.3927409 v 1.298801 l 1.1575521,-0.699354 z"
         style="stroke-width:0.26458332"
         id="path899-5"
         inkscape:connector-curvature="0" />
    </g>
    <g
       aria-label="-"
       style="font-style:normal;font-weight:normal;font-size:7.05555534px;line-height:1.25;font-family:sans-serif;letter-spacing:0px;word-spacing:0px;fill:#000000;fill-opacity:1;stroke:none;stroke-width:0.26458332"
       id="text886-7"
       transform="matrix(0.63070067,0,0,0.63070067,85.042676,288.36359)">
      <path
         d="m -20.822156,-26.872934 h 1.856906 v 0.564996 h -1.856906 z"
         style="stroke-width:0.26458332"
         id="path902-4"
         inkscape:connector-curvature="0" />
    </g>
    <g
       transform="matrix(0.63070067,0,0,0.63070067,73.527241,166.08337)"
       aria-label="5"
       style="font-style:normal;font-weight:normal;font-size:7.05555534px;line-height:1.25;font-family:sans-serif;letter-spacing:0px;word-spacing:0px;fill:#000000;fill-opacity:1;stroke:none;stroke-width:0.26458332"
       id="text1303-1">
      <path
         inkscape:connector-curvature="0"
         d="m -103.74499,162.51073 h 4.780935 v 1.02491 h -3.665585 v 2.20659 q 0.26528,-0.0904 0.53055,-0.13264 0.26527,-0.0482 0.53054,-0.0482 1.50723,0 2.387454,0.82596 0.880222,0.82596 0.880222,2.23673 0,1.45297 -0.904338,2.26084 -0.904338,0.80185 -2.550228,0.80185 -0.56672,0 -1.15756,-0.0965 -0.5848,-0.0965 -1.21181,-0.28939 v -1.22387 q 0.5426,0.29542 1.12138,0.44011 0.57878,0.14469 1.22387,0.14469 1.043,0 1.65192,-0.54863 0.608924,-0.54863 0.608924,-1.48914 0,-0.94051 -0.608924,-1.48914 -0.60892,-0.54863 -1.65192,-0.54863 -0.48834,0 -0.97668,0.10852 -0.48232,0.10852 -0.98875,0.33762 z"
         style="font-size:12.34722233px;stroke-width:0.26458332"
         id="path1305-8" />
    </g>
    <g
       transform="matrix(0.63070067,0,0,0.63070067,69.202767,164.48674)"
       aria-label="4"
       style="font-style:normal;font-weight:normal;font-size:7.05555534px;line-height:1.25;font-family:sans-serif;letter-spacing:0px;word-spacing:0px;fill:#000000;fill-opacity:1;stroke:none;stroke-width:0.26458332"
       id="text1126-5">
      <path
         inkscape:connector-curvature="0"
         d="m -53.919926,166.21765 -3.074747,4.80504 h 3.074747 z m -0.319532,-1.06109 h 1.531345 v 5.86613 h 1.284159 v 1.01286 h -1.284159 v 2.12218 h -1.211813 v -2.12218 h -4.06349 v -1.17564 z"
         style="font-size:12.34722233px;stroke-width:0.26458332"
         id="path1128-9" />
    </g>
    <g
       transform="matrix(0.63070067,0,0,0.63070067,110.94254,167.5549)"
       aria-label="3"
       style="font-style:normal;font-weight:normal;font-size:7.05555534px;line-height:1.25;font-family:sans-serif;letter-spacing:0px;word-spacing:0px;fill:#000000;fill-opacity:1;stroke:none;stroke-width:0.26458332"
       id="text1299-7">
      <path
         inkscape:connector-curvature="0"
         d="m -79.278666,164.39077 q 0.874193,0.1869 1.362535,0.77773 0.494371,0.59083 0.494371,1.459 0,1.33239 -0.916395,2.06189 -0.916395,0.7295 -2.604492,0.7295 -0.566718,0 -1.16961,-0.11455 -0.596863,-0.10852 -1.235928,-0.33159 v -1.17564 q 0.506429,0.29542 1.109321,0.44614 0.602891,0.15072 1.260043,0.15072 1.145494,0 1.742357,-0.45217 0.602892,-0.45217 0.602892,-1.3143 0,-0.79582 -0.560689,-1.24196 -0.554661,-0.45217 -1.549432,-0.45217 h -1.049032 v -1.0008 h 1.097263 q 0.898309,0 1.374593,-0.3557 0.476285,-0.36174 0.476285,-1.03698 0,-0.69332 -0.494371,-1.06109 -0.488343,-0.37379 -1.404738,-0.37379 -0.5004,0 -1.073147,0.10852 -0.572747,0.10852 -1.260044,0.33762 v -1.0852 q 0.693326,-0.19293 1.296217,-0.28939 0.608921,-0.0965 1.145495,-0.0965 1.38665,0 2.194525,0.63303 0.807875,0.62701 0.807875,1.70016 0,0.74758 -0.428053,1.26607 -0.428053,0.51246 -1.217841,0.71141 z"
         style="font-size:12.34722233px;stroke-width:0.26458332"
         id="path1308-5" />
    </g>
    <g
       transform="matrix(0.63070067,0,0,0.63070067,151.7361,174.31592)"
       aria-label="2"
       style="font-style:normal;font-weight:normal;font-size:7.05555534px;line-height:1.25;font-family:sans-serif;letter-spacing:0px;word-spacing:0px;fill:#000000;fill-opacity:1;stroke:none;stroke-width:0.26458332"
       id="text1295-3">
      <path
         inkscape:connector-curvature="0"
         d="m -106.48778,158.01377 h 4.25039 v 1.02491 h -5.71541 v -1.02491 q 0.69332,-0.71745 1.88705,-1.92323 1.19975,-1.21181 1.50723,-1.56149 0.5848,-0.65715 0.8139,-1.10932 0.23513,-0.4582 0.23513,-0.89831 0,-0.71744 -0.50643,-1.16961 -0.5004,-0.45217 -1.30827,-0.45217 -0.57275,0 -1.21182,0.19896 -0.63303,0.19895 -1.3565,0.60289 v -1.2299 q 0.73553,-0.29542 1.37459,-0.44614 0.63907,-0.15072 1.16961,-0.15072 1.39871,0 2.2307,0.69935 0.83199,0.69936 0.83199,1.86897 0,0.55466 -0.21101,1.05506 -0.20499,0.49437 -0.75362,1.16961 -0.15072,0.17483 -0.95859,1.01285 -0.80788,0.83199 -2.27894,2.3332 z"
         style="font-size:12.34722233px;stroke-width:0.26458332"
         id="path1311-8" />
    </g>
    <g
       transform="matrix(0.63070067,0,0,0.63070067,163.70719,185.89029)"
       aria-label="1"
       style="font-style:normal;font-weight:normal;font-size:7.05555534px;line-height:1.25;font-family:sans-serif;letter-spacing:0px;word-spacing:0px;fill:#000000;fill-opacity:1;stroke:none;stroke-width:0.26458332"
       id="text1047-8">
      <path
         inkscape:connector-curvature="0"
         d="m -86.667599,138.8206 h 1.989543 v -6.86693 l -2.164382,0.43408 v -1.10932 l 2.152324,-0.43408 h 1.217841 v 7.97625 h 1.989543 v 1.02492 h -5.184869 z"
         style="font-size:12.34722233px;stroke-width:0.26458332"
         id="path1049-3" />
    </g>
  </g>
</svg>
