<?xml version="1.0" encoding="UTF-8" standalone="no"?>
<!-- Created with Inkscape (http://www.inkscape.org/) -->

<svg
   xmlns:dc="http://purl.org/dc/elements/1.1/"
   xmlns:cc="http://creativecommons.org/ns#"
   xmlns:rdf="http://www.w3.org/1999/02/22-rdf-syntax-ns#"
   xmlns:svg="http://www.w3.org/2000/svg"
   xmlns="http://www.w3.org/2000/svg"
   xmlns:sodipodi="http://sodipodi.sourceforge.net/DTD/sodipodi-0.dtd"
   xmlns:inkscape="http://www.inkscape.org/namespaces/inkscape"
   width="120mm"
   height="120mm"
   viewBox="0 0 120 120"
   version="1.1"
   id="svg8"
   inkscape:version="0.92.3 (2405546, 2018-03-11)"
   sodipodi:docname="sud.svg">
  <defs
     id="defs2" />
  <sodipodi:namedview
     id="base"
     pagecolor="#ffffff"
     bordercolor="#666666"
     borderopacity="1.0"
     inkscape:pageopacity="0.0"
     inkscape:pageshadow="2"
     inkscape:zoom="0.86304304"
     inkscape:cx="242.0086"
     inkscape:cy="164.51565"
     inkscape:document-units="mm"
     inkscape:current-layer="layer1"
     showgrid="false"
     inkscape:window-width="1311"
     inkscape:window-height="704"
     inkscape:window-x="55"
     inkscape:window-y="27"
     inkscape:window-maximized="1" />
  <metadata
     id="metadata5">
    <rdf:RDF>
      <cc:Work
         rdf:about="">
        <dc:format>image/svg+xml</dc:format>
        <dc:type
           rdf:resource="http://purl.org/dc/dcmitype/StillImage" />
        <dc:title></dc:title>
      </cc:Work>
    </rdf:RDF>
  </metadata>
  <g
     inkscape:label="Layer 1"
     inkscape:groupmode="layer"
     id="layer1"
     transform="translate(0,-177)">
    <rect
       style="fill:#e3dbdb;stroke:#000000;stroke-width:0.35174373"
       id="rect10"
       width="13.294251"
       height="13.29425"
       x="0.17587186"
       y="283.52988" />
    <rect
       style="fill:#e3dbdb;stroke:#000000;stroke-width:0.35174373"
       id="rect10-3"
       width="13.294251"
       height="13.29425"
       x="13.470122"
       y="283.52988" />
    <rect
       style="fill:#e3dbdb;stroke:#000000;stroke-width:0.35174373"
       id="rect10-6"
       width="13.294251"
       height="13.29425"
       x="26.764372"
       y="283.52988" />
    <rect
       style="fill:#f9f9f9;stroke:#000000;stroke-width:0.35174373"
       id="rect10-3-7"
       width="13.294251"
       height="13.29425"
       x="40.058624"
       y="283.52988" />
    <rect
       style="fill:#f9f9f9;stroke:#000000;stroke-width:0.35174373"
       id="rect10-5"
       width="13.294251"
       height="13.29425"
       x="53.352871"
       y="283.52988" />
    <rect
       style="fill:#f9f9f9;stroke:#000000;stroke-width:0.35174373"
       id="rect10-3-3"
       width="13.294251"
       height="13.29425"
       x="66.647118"
       y="283.52988" />
    <rect
       style="fill:#e3dbdb;stroke:#000000;stroke-width:0.35174373"
       id="rect10-6-5"
       width="13.294251"
       height="13.29425"
       x="79.941368"
       y="283.52988" />
    <rect
       style="fill:#e3dbdb;stroke:#000000;stroke-width:0.35174373"
       id="rect10-3-7-6"
       width="13.294251"
       height="13.29425"
       x="93.235626"
       y="283.52988" />
    <rect
       style="fill:#e3dbdb;stroke:#000000;stroke-width:0.35174373"
       id="rect10-2"
       width="13.294251"
       height="13.29425"
       x="106.52987"
       y="283.52988" />
    <rect
       style="fill:#e3dbdb;stroke:#000000;stroke-width:0.35174373"
       id="rect10-9"
       width="13.294251"
       height="13.29425"
       x="0.17587186"
       y="270.23566" />
    <rect
       style="fill:#e3dbdb;stroke:#000000;stroke-width:0.35174373"
       id="rect10-3-1"
       width="13.294251"
       height="13.29425"
       x="13.470122"
       y="270.23566" />
    <rect
       style="fill:#e3dbdb;stroke:#000000;stroke-width:0.35174373"
       id="rect10-6-2"
       width="13.294251"
       height="13.29425"
       x="26.764372"
       y="270.23566" />
    <rect
       style="fill:#f9f9f9;stroke:#000000;stroke-width:0.35174373"
       id="rect10-3-7-7"
       width="13.294251"
       height="13.29425"
       x="40.058624"
       y="270.23566" />
    <rect
       style="fill:#f9f9f9;stroke:#000000;stroke-width:0.35174373"
       id="rect10-5-0"
       width="13.294251"
       height="13.29425"
       x="53.352867"
       y="270.23566" />
    <rect
       style="fill:#f9f9f9;stroke:#000000;stroke-width:0.35174373"
       id="rect10-3-3-9"
       width="13.294251"
       height="13.29425"
       x="66.647118"
       y="270.23566" />
    <rect
       style="fill:#e3dbdb;stroke:#000000;stroke-width:0.35174373"
       id="rect10-6-5-3"
       width="13.294251"
       height="13.29425"
       x="79.941368"
       y="270.23566" />
    <rect
       style="fill:#e3dbdb;stroke:#000000;stroke-width:0.35174373"
       id="rect10-3-7-6-6"
       width="13.294251"
       height="13.29425"
       x="93.235626"
       y="270.23566" />
    <rect
       style="fill:#e3dbdb;stroke:#000000;stroke-width:0.35174373"
       id="rect10-2-0"
       width="13.294251"
       height="13.29425"
       x="106.52987"
       y="270.23566" />
    <rect
       style="fill:#e3dbdb;stroke:#000000;stroke-width:0.35174373"
       id="rect10-62"
       width="13.294251"
       height="13.29425"
       x="0.17587186"
       y="256.94138" />
    <rect
       style="fill:#e3dbdb;stroke:#000000;stroke-width:0.35174373"
       id="rect10-3-6"
       width="13.294251"
       height="13.29425"
       x="13.470122"
       y="256.94138" />
    <rect
       style="fill:#e3dbdb;stroke:#000000;stroke-width:0.35174373"
       id="rect10-6-1"
       width="13.294251"
       height="13.29425"
       x="26.764378"
       y="256.94138" />
    <rect
       style="fill:#f9f9f9;stroke:#000000;stroke-width:0.35174373"
       id="rect10-3-7-8"
       width="13.294251"
       height="13.29425"
       x="40.058628"
       y="256.94138" />
    <rect
       style="fill:#f9f9f9;stroke:#000000;stroke-width:0.35174373"
       id="rect10-5-7"
       width="13.294251"
       height="13.29425"
       x="53.352871"
       y="256.94138" />
    <rect
       style="fill:#f9f9f9;stroke:#000000;stroke-width:0.35174373"
       id="rect10-3-3-92"
       width="13.294251"
       height="13.29425"
       x="66.647125"
       y="256.94138" />
    <rect
       style="fill:#e3dbdb;stroke:#000000;stroke-width:0.35174373"
       id="rect10-6-5-0"
       width="13.294251"
       height="13.29425"
       x="79.941368"
       y="256.94138" />
    <rect
       style="fill:#e3dbdb;stroke:#000000;stroke-width:0.35174373"
       id="rect10-3-7-6-2"
       width="13.294251"
       height="13.29425"
       x="93.235626"
       y="256.94138" />
    <rect
       style="fill:#e3dbdb;stroke:#000000;stroke-width:0.35174373"
       id="rect10-2-3"
       width="13.294251"
       height="13.29425"
       x="106.52987"
       y="256.94138" />
    <rect
       style="fill:#f9f9f9;stroke:#000000;stroke-width:0.35174373"
       id="rect10-9-7"
       width="13.294251"
       height="13.29425"
       x="0.17587186"
       y="243.64711" />
    <rect
       style="fill:#f9f9f9;stroke:#000000;stroke-width:0.35174373"
       id="rect10-3-1-5"
       width="13.294251"
       height="13.29425"
       x="13.470122"
       y="243.64711" />
    <rect
       style="fill:#f9f9f9;stroke:#000000;stroke-width:0.35174373"
       id="rect10-6-2-9"
       width="13.294251"
       height="13.29425"
       x="26.764378"
       y="243.64711" />
    <rect
       style="fill:#e3dbdb;stroke:#000000;stroke-width:0.35174373"
       id="rect10-3-7-7-2"
       width="13.294251"
       height="13.29425"
       x="40.058628"
       y="243.64711" />
    <rect
       style="fill:#e3dbdb;stroke:#000000;stroke-width:0.35174373"
       id="rect10-5-0-2"
       width="13.294251"
       height="13.29425"
       x="53.352867"
       y="243.64711" />
    <rect
       style="fill:#e3dbdb;stroke:#000000;stroke-width:0.35174373"
       id="rect10-3-3-9-8"
       width="13.294251"
       height="13.29425"
       x="66.647125"
       y="243.64711" />
    <rect
       style="fill:#f9f9f9;stroke:#000000;stroke-width:0.35174373"
       id="rect10-6-5-3-9"
       width="13.294251"
       height="13.29425"
       x="79.941368"
       y="243.64711" />
    <rect
       style="fill:#f9f9f9;stroke:#000000;stroke-width:0.35174373"
       id="rect10-3-7-6-6-7"
       width="13.294251"
       height="13.29425"
       x="93.235626"
       y="243.64711" />
    <rect
       style="fill:#f9f9f9;stroke:#000000;stroke-width:0.35174373"
       id="rect10-2-0-3"
       width="13.294251"
       height="13.29425"
       x="106.52987"
       y="243.64711" />
    <rect
       style="fill:#f9f9f9;stroke:#000000;stroke-width:0.35174373"
       id="rect10-61"
       width="13.294251"
       height="13.29425"
       x="0.17587186"
       y="230.35286" />
    <rect
       style="fill:#f9f9f9;stroke:#000000;stroke-width:0.35174373"
       id="rect10-3-2"
       width="13.294251"
       height="13.29425"
       x="13.470133"
       y="230.35286" />
    <rect
       style="fill:#f9f9f9;stroke:#000000;stroke-width:0.35174373"
       id="rect10-6-9"
       width="13.294251"
       height="13.29425"
       x="26.764378"
       y="230.35286" />
    <rect
       style="fill:#e3dbdb;stroke:#000000;stroke-width:0.35174373"
       id="rect10-3-7-3"
       width="13.294251"
       height="13.29425"
       x="40.058636"
       y="230.35286" />
    <rect
       style="fill:#e3dbdb;stroke:#000000;stroke-width:0.35174373"
       id="rect10-5-1"
       width="13.294251"
       height="13.29425"
       x="53.352875"
       y="230.35286" />
    <rect
       style="fill:#e3dbdb;stroke:#000000;stroke-width:0.35174373"
       id="rect10-3-3-94"
       width="13.294251"
       height="13.29425"
       x="66.647133"
       y="230.35286" />
    <rect
       style="fill:#f9f9f9;stroke:#000000;stroke-width:0.35174373"
       id="rect10-6-5-7"
       width="13.294251"
       height="13.29425"
       x="79.941376"
       y="230.35286" />
    <rect
       style="fill:#f9f9f9;stroke:#000000;stroke-width:0.35174373"
       id="rect10-3-7-6-8"
       width="13.294251"
       height="13.29425"
       x="93.235626"
       y="230.35286" />
    <rect
       style="fill:#f9f9f9;stroke:#000000;stroke-width:0.35174373"
       id="rect10-2-4"
       width="13.294251"
       height="13.29425"
       x="106.52987"
       y="230.35286" />
    <rect
       style="fill:#f9f9f9;stroke:#000000;stroke-width:0.35174373"
       id="rect10-9-5"
       width="13.294251"
       height="13.29425"
       x="0.17587186"
       y="217.05862" />
    <rect
       style="fill:#f9f9f9;stroke:#000000;stroke-width:0.35174373"
       id="rect10-3-1-0"
       width="13.294251"
       height="13.29425"
       x="13.470133"
       y="217.05862" />
    <rect
       style="fill:#f9f9f9;stroke:#000000;stroke-width:0.35174373"
       id="rect10-6-2-3"
       width="13.294251"
       height="13.29425"
       x="26.764378"
       y="217.05862" />
    <rect
       style="fill:#e3dbdb;stroke:#000000;stroke-width:0.35174373"
       id="rect10-3-7-7-6"
       width="13.294251"
       height="13.29425"
       x="40.058636"
       y="217.05862" />
    <rect
       style="fill:#e3dbdb;stroke:#000000;stroke-width:0.35174373"
       id="rect10-5-0-1"
       width="13.294251"
       height="13.29425"
       x="53.352871"
       y="217.05862" />
    <rect
       style="fill:#e3dbdb;stroke:#000000;stroke-width:0.35174373"
       id="rect10-3-3-9-0"
       width="13.294251"
       height="13.29425"
       x="66.647133"
       y="217.05862" />
    <rect
       style="fill:#f9f9f9;stroke:#000000;stroke-width:0.35174373"
       id="rect10-6-5-3-6"
       width="13.294251"
       height="13.29425"
       x="79.941368"
       y="217.05862" />
    <rect
       style="fill:#f9f9f9;stroke:#000000;stroke-width:0.35174373"
       id="rect10-3-7-6-6-3"
       width="13.294251"
       height="13.29425"
       x="93.235626"
       y="217.05862" />
    <rect
       style="fill:#f9f9f9;stroke:#000000;stroke-width:0.35174373"
       id="rect10-2-0-2"
       width="13.294251"
       height="13.29425"
       x="106.52987"
       y="217.05862" />
    <rect
       style="fill:#e3dbdb;stroke:#000000;stroke-width:0.35174373"
       id="rect10-62-0"
       width="13.294251"
       height="13.29425"
       x="0.17587186"
       y="203.76437" />
    <rect
       style="fill:#e3dbdb;stroke:#000000;stroke-width:0.35174373"
       id="rect10-3-6-6"
       width="13.294251"
       height="13.29425"
       x="13.470133"
       y="203.76437" />
    <rect
       style="fill:#e3dbdb;stroke:#000000;stroke-width:0.35174373"
       id="rect10-6-1-1"
       width="13.294251"
       height="13.29425"
       x="26.764383"
       y="203.76437" />
    <rect
       style="fill:#f9f9f9;stroke:#000000;stroke-width:0.35174373"
       id="rect10-3-7-8-5"
       width="13.294251"
       height="13.29425"
       x="40.058636"
       y="203.76437" />
    <rect
       style="fill:#f9f9f9;stroke:#000000;stroke-width:0.35174373"
       id="rect10-5-7-5"
       width="13.294251"
       height="13.29425"
       x="53.352875"
       y="203.76437" />
    <rect
       style="fill:#f9f9f9;stroke:#000000;stroke-width:0.35174373"
       id="rect10-3-3-92-4"
       width="13.294251"
       height="13.29425"
       x="66.647133"
       y="203.76437" />
    <rect
       style="fill:#e3dbdb;stroke:#000000;stroke-width:0.35174373"
       id="rect10-6-5-0-7"
       width="13.294251"
       height="13.29425"
       x="79.941376"
       y="203.76437" />
    <rect
       style="fill:#e3dbdb;stroke:#000000;stroke-width:0.35174373"
       id="rect10-3-7-6-2-6"
       width="13.294251"
       height="13.29425"
       x="93.235626"
       y="203.76437" />
    <rect
       style="fill:#e3dbdb;stroke:#000000;stroke-width:0.35174373"
       id="rect10-2-3-5"
       width="13.294251"
       height="13.29425"
       x="106.52987"
       y="203.76437" />
    <rect
       style="fill:#e3dbdb;stroke:#000000;stroke-width:0.35174373"
       id="rect10-9-7-6"
       width="13.294251"
       height="13.29425"
       x="0.17587186"
       y="190.47012" />
    <rect
       style="fill:#e3dbdb;stroke:#000000;stroke-width:0.35174373"
       id="rect10-3-1-5-9"
       width="13.294251"
       height="13.29425"
       x="13.470133"
       y="190.47012" />
    <rect
       style="fill:#e3dbdb;stroke:#000000;stroke-width:0.35174373"
       id="rect10-6-2-9-3"
       width="13.294251"
       height="13.29425"
       x="26.764383"
       y="190.47012" />
    <rect
       style="fill:#f9f9f9;stroke:#000000;stroke-width:0.35174373"
       id="rect10-3-7-7-2-7"
       width="13.294251"
       height="13.29425"
       x="40.058636"
       y="190.47012" />
    <rect
       style="fill:#f9f9f9;stroke:#000000;stroke-width:0.35174373"
       id="rect10-5-0-2-4"
       width="13.294251"
       height="13.29425"
       x="53.352871"
       y="190.47012" />
    <rect
       style="fill:#f9f9f9;stroke:#000000;stroke-width:0.35174373"
       id="rect10-3-3-9-8-5"
       width="13.294251"
       height="13.29425"
       x="66.647133"
       y="190.47012" />
    <rect
       style="fill:#e3dbdb;stroke:#000000;stroke-width:0.35174373"
       id="rect10-6-5-3-9-2"
       width="13.294251"
       height="13.29425"
       x="79.941368"
       y="190.47012" />
    <rect
       style="fill:#e3dbdb;stroke:#000000;stroke-width:0.35174373"
       id="rect10-3-7-6-6-7-5"
       width="13.294251"
       height="13.29425"
       x="93.235626"
       y="190.47012" />
    <rect
       style="fill:#e3dbdb;stroke:#000000;stroke-width:0.35174373"
       id="rect10-2-0-3-4"
       width="13.294251"
       height="13.29425"
       x="106.52987"
       y="190.47012" />
    <rect
       style="fill:#e3dbdb;stroke:#000000;stroke-width:0.35174373"
       id="rect10-9-7-6-7"
       width="13.294251"
       height="13.29425"
       x="0.17587186"
       y="177.17586" />
    <rect
       style="fill:#e3dbdb;stroke:#000000;stroke-width:0.35174373"
       id="rect10-3-1-5-9-4"
       width="13.294251"
       height="13.29425"
       x="13.470133"
       y="177.17586" />
    <rect
       style="fill:#e3dbdb;stroke:#000000;stroke-width:0.35174373"
       id="rect10-6-2-9-3-4"
       width="13.294251"
       height="13.29425"
       x="26.764383"
       y="177.17586" />
    <rect
       style="fill:#f9f9f9;stroke:#000000;stroke-width:0.35174373"
       id="rect10-3-7-7-2-7-3"
       width="13.294251"
       height="13.29425"
       x="40.05864"
       y="177.17586" />
    <rect
       style="fill:#f9f9f9;stroke:#000000;stroke-width:0.35174373"
       id="rect10-5-0-2-4-0"
       width="13.294251"
       height="13.29425"
       x="53.352871"
       y="177.17586" />
    <rect
       style="fill:#f9f9f9;stroke:#000000;stroke-width:0.35174373"
       id="rect10-3-3-9-8-5-7"
       width="13.294251"
       height="13.29425"
       x="66.647133"
       y="177.17586" />
    <rect
       style="fill:#e3dbdb;stroke:#000000;stroke-width:0.35174373"
       id="rect10-6-5-3-9-2-8"
       width="13.294251"
       height="13.29425"
       x="79.941368"
       y="177.17586" />
    <rect
       style="fill:#e3dbdb;stroke:#000000;stroke-width:0.35174373"
       id="rect10-3-7-6-6-7-5-6"
       width="13.294251"
       height="13.29425"
       x="93.235626"
       y="177.17586" />
    <rect
       style="fill:#e3dbdb;stroke:#000000;stroke-width:0.35174373"
       id="rect10-2-0-3-4-8"
       width="13.294251"
       height="13.29425"
       x="106.52987"
       y="177.17586" />
    <text
       xml:space="preserve"
       style="font-style:normal;font-weight:normal;font-size:9.37983227px;line-height:1.25;font-family:sans-serif;letter-spacing:0px;word-spacing:0px;fill:#000000;fill-opacity:1;stroke:none;stroke-width:0.35174373"
       x="17.08954"
       y="266.81082"
       id="text393"><tspan
         sodipodi:role="line"
         id="tspan391"
         x="17.08954"
         y="266.81082"
         style="font-size:9.37983227px;stroke-width:0.35174373">2</tspan></text>
    <g
       aria-label="1"
       style="font-style:normal;font-weight:normal;font-size:7.05555534px;line-height:1.25;font-family:sans-serif;letter-spacing:0px;word-spacing:0px;fill:#000000;fill-opacity:1;stroke:none;stroke-width:0.26458332"
       id="text420">
      <path
         d="m -38.119247,175.74061 h 1.136882 v -3.92396 l -1.236789,0.24805 v -0.6339 l 1.229899,-0.24805 h 0.695909 v 4.55786 h 1.136881 v 0.58567 h -2.962782 z"
         style="font-size:7.05555534px;stroke-width:0.26458332"
         id="path482"
         inkscape:connector-curvature="0" />
    </g>
    <g
       aria-label="2"
       style="font-style:normal;font-weight:normal;font-size:7.05555534px;line-height:1.25;font-family:sans-serif;letter-spacing:0px;word-spacing:0px;fill:#000000;fill-opacity:1;stroke:none;stroke-width:0.26458332"
       id="text424"
       transform="translate(5.644053,3.46565)">
      <path
         d="m -24.642278,171.08697 h 2.428792 v 0.58567 h -3.26595 v -0.58567 q 0.396186,-0.40996 1.078315,-1.09898 0.685574,-0.69247 0.861273,-0.89228 0.334175,-0.37552 0.465088,-0.6339 0.134359,-0.26183 0.134359,-0.51332 0,-0.40997 -0.289388,-0.66835 -0.285943,-0.25838 -0.747586,-0.25838 -0.327284,0 -0.692464,0.11369 -0.361735,0.11369 -0.775146,0.34451 v -0.7028 q 0.420301,-0.16881 0.785481,-0.25494 0.365181,-0.0861 0.668349,-0.0861 0.799262,0 1.274685,0.39963 0.475423,0.39964 0.475423,1.06798 0,0.31695 -0.120578,0.6029 -0.117133,0.28249 -0.430637,0.66834 -0.08613,0.0999 -0.54777,0.57878 -0.461643,0.47542 -1.302246,1.33325 z"
         style="font-size:7.05555534px;stroke-width:0.26458332"
         id="path479"
         inkscape:connector-curvature="0" />
    </g>
    <g
       aria-label="3"
       style="font-style:normal;font-weight:normal;font-size:7.05555534px;line-height:1.25;font-family:sans-serif;letter-spacing:0px;word-spacing:0px;fill:#000000;fill-opacity:1;stroke:none;stroke-width:0.26458332"
       id="text428">
      <path
         d="m 1.4186408,170.1831 q 0.4995389,0.1068 0.7785916,0.44442 0.2824978,0.33762 0.2824978,0.83371 0,0.76137 -0.5236545,1.17823 -0.5236545,0.41685 -1.48828118,0.41685 -0.32383897,0 -0.6683485,-0.0654 -0.34106445,-0.062 -0.70624456,-0.18948 v -0.6718 q 0.28938801,0.16881 0.63389755,0.25494 0.34450954,0.0861 0.72002494,0.0861 0.65456815,0 0.99563255,-0.25838 0.3445096,-0.25839 0.3445096,-0.75104 0,-0.45475 -0.3203939,-0.70969 -0.3169488,-0.25838 -0.88538953,-0.25838 h -0.5994466 v -0.57188 h 0.62700736 q 0.51331917,0 0.78548177,-0.20326 0.2721625,-0.20671 0.2721625,-0.59256 0,-0.39619 -0.2824978,-0.60634 -0.2790527,-0.21359 -0.80270723,-0.21359 -0.28594292,0 -0.61322698,0.062 -0.32728406,0.062 -0.72002494,0.19292 v -0.62011 q 0.39618597,-0.11025 0.74069551,-0.16537 0.34795464,-0.0551 0.65456812,-0.0551 0.79237192,0 1.25401472,0.36174 0.4616428,0.35829 0.4616428,0.97151 0,0.42719 -0.2446018,0.72347 -0.2446018,0.29284 -0.6959093,0.40652 z"
         style="font-size:7.05555534px;stroke-width:0.26458332"
         id="path476"
         inkscape:connector-curvature="0" />
    </g>
    <g
       aria-label="4"
       style="font-style:normal;font-weight:normal;font-size:7.05555534px;line-height:1.25;font-family:sans-serif;letter-spacing:0px;word-spacing:0px;fill:#000000;fill-opacity:1;stroke:none;stroke-width:0.26458332"
       id="text432">
      <path
         d="m -11.133947,161.83992 -1.756999,2.74574 h 1.756999 z m -0.182591,-0.60634 h 0.875055 v 3.35208 h 0.733805 v 0.57877 h -0.733805 v 1.21268 h -0.692464 v -1.21268 h -2.321995 v -0.67179 z"
         style="font-size:7.05555534px;stroke-width:0.26458332"
         id="path473"
         inkscape:connector-curvature="0" />
    </g>
    <g
       aria-label="5"
       style="font-style:normal;font-weight:normal;font-size:7.05555534px;line-height:1.25;font-family:sans-serif;letter-spacing:0px;word-spacing:0px;fill:#000000;fill-opacity:1;stroke:none;stroke-width:0.26458332"
       id="text436"
       transform="translate(8.3918859,8.5562302)">
      <path
         d="m -16.569433,174.55262 h 2.731961 v 0.58567 h -2.094618 v 1.26091 q 0.151584,-0.0517 0.303168,-0.0758 0.151584,-0.0276 0.303168,-0.0276 0.861274,0 1.364258,0.47198 0.502984,0.47198 0.502984,1.27813 0,0.83027 -0.516764,1.29191 -0.516765,0.4582 -1.457276,0.4582 -0.323839,0 -0.661458,-0.0551 -0.334174,-0.0551 -0.692464,-0.16537 v -0.69935 q 0.310059,0.16881 0.640788,0.25149 0.330729,0.0827 0.699354,0.0827 0.596002,0 0.943956,-0.3135 0.347955,-0.3135 0.347955,-0.85094 0,-0.53743 -0.347955,-0.85094 -0.347954,-0.3135 -0.943956,-0.3135 -0.279053,0 -0.558105,0.062 -0.275608,0.062 -0.564996,0.19293 z"
         style="font-size:7.05555534px;stroke-width:0.26458332"
         id="path470"
         inkscape:connector-curvature="0" />
    </g>
    <g
       aria-label="6"
       style="font-style:normal;font-weight:normal;font-size:7.05555534px;line-height:1.25;font-family:sans-serif;letter-spacing:0px;word-spacing:0px;fill:#000000;fill-opacity:1;stroke:none;stroke-width:0.26458332"
       id="text440">
      <path
         d="m 3.7731179,155.98591 q -0.468533,0 -0.7441406,0.3204 -0.2721625,0.32039 -0.2721625,0.8785 0,0.55466 0.2721625,0.8785 0.2756076,0.32039 0.7441406,0.32039 0.468533,0 0.7406955,-0.32039 0.2756076,-0.32384 0.2756076,-0.8785 0,-0.55811 -0.2756076,-0.8785 -0.2721625,-0.3204 -0.7406955,-0.3204 z m 1.3814832,-2.18074 v 0.6339 q -0.2618272,-0.12403 -0.5305446,-0.18949 -0.2652724,-0.0654 -0.5270996,-0.0654 -0.6890191,0 -1.0541992,0.46509 -0.361735,0.46508 -0.4134115,1.40559 0.2032607,-0.29972 0.5098741,-0.45819 0.3066135,-0.16192 0.6752387,-0.16192 0.7751465,0 1.2230089,0.47198 0.4513075,0.46853 0.4513075,1.27813 0,0.79237 -0.468533,1.27124 -0.4685329,0.47886 -1.2471245,0.47886 -0.8922797,0 -1.3642578,-0.68212 -0.471978,-0.68558 -0.471978,-1.98438 0,-1.21956 0.578776,-1.94303 0.578776,-0.72692 1.553738,-0.72692 0.2618272,0 0.5270996,0.0517 0.2687174,0.0517 0.5581054,0.15503 z"
         style="font-size:7.05555534px;stroke-width:0.26458332"
         id="path467"
         inkscape:connector-curvature="0" />
    </g>
    <g
       aria-label="7"
       style="font-style:normal;font-weight:normal;font-size:7.05555534px;line-height:1.25;font-family:sans-serif;letter-spacing:0px;word-spacing:0px;fill:#000000;fill-opacity:1;stroke:none;stroke-width:0.26458332"
       id="text444">
      <path
         d="m -29.910594,175.19452 h 3.307291 v 0.29627 l -1.867241,4.84725 h -0.726916 l 1.756999,-4.55786 h -2.470133 z"
         style="font-size:7.05555534px;stroke-width:0.26458332"
         id="path464"
         inkscape:connector-curvature="0" />
    </g>
    <g
       aria-label="8"
       style="font-style:normal;font-weight:normal;font-size:7.05555534px;line-height:1.25;font-family:sans-serif;letter-spacing:0px;word-spacing:0px;fill:#000000;fill-opacity:1;stroke:none;stroke-width:0.26458332"
       id="text448"
       transform="translate(4.3327001,-0.80235187)">
      <path
         d="m -26.80238,157.99714 q -0.496094,0 -0.782037,0.26527 -0.282498,0.26527 -0.282498,0.73036 0,0.46509 0.282498,0.73036 0.285943,0.26528 0.782037,0.26528 0.496093,0 0.782036,-0.26528 0.285943,-0.26871 0.285943,-0.73036 0,-0.46509 -0.285943,-0.73036 -0.282497,-0.26527 -0.782036,-0.26527 z m -0.69591,-0.29628 q -0.447862,-0.11024 -0.699354,-0.41685 -0.248047,-0.30662 -0.248047,-0.74759 0,-0.61667 0.437527,-0.97496 0.440973,-0.35829 1.205784,-0.35829 0.768256,0 1.205783,0.35829 0.437527,0.35829 0.437527,0.97496 0,0.44097 -0.251492,0.74759 -0.248047,0.30661 -0.692464,0.41685 0.502984,0.11713 0.782037,0.4582 0.282498,0.34106 0.282498,0.83371 0,0.74759 -0.458198,1.14722 -0.454753,0.39963 -1.305691,0.39963 -0.850939,0 -1.309137,-0.39963 -0.454752,-0.39963 -0.454752,-1.14722 0,-0.49265 0.282498,-0.83371 0.282497,-0.34107 0.785481,-0.4582 z m -0.254937,-1.09898 q 0,0.39963 0.248047,0.62356 0.251492,0.22393 0.7028,0.22393 0.447862,0 0.699354,-0.22393 0.254937,-0.22393 0.254937,-0.62356 0,-0.39963 -0.254937,-0.62357 -0.251492,-0.22393 -0.699354,-0.22393 -0.451308,0 -0.7028,0.22393 -0.248047,0.22394 -0.248047,0.62357 z"
         style="font-size:7.05555534px;stroke-width:0.26458332"
         id="path461"
         inkscape:connector-curvature="0" />
    </g>
    <g
       aria-label="9"
       style="font-style:normal;font-weight:normal;font-size:7.05555534px;line-height:1.25;font-family:sans-serif;letter-spacing:0px;word-spacing:0px;fill:#000000;fill-opacity:1;stroke:none;stroke-width:0.26458332"
       id="text456">
      <path
         d="m -46.082199,169.47972 v -0.6339 q 0.261827,0.12403 0.530545,0.18948 0.268717,0.0655 0.527099,0.0655 0.689019,0 1.050754,-0.46164 0.36518,-0.46509 0.416857,-1.40905 -0.199816,0.29628 -0.506429,0.45475 -0.306614,0.15848 -0.678684,0.15848 -0.771701,0 -1.223009,-0.46509 -0.447862,-0.46853 -0.447862,-1.27813 0,-0.79237 0.468533,-1.27124 0.468533,-0.47887 1.247124,-0.47887 0.89228,0 1.360813,0.68558 0.471978,0.68213 0.471978,1.98437 0,1.21612 -0.578776,1.94304 -0.575331,0.72347 -1.550293,0.72347 -0.261827,0 -0.530545,-0.0517 -0.268717,-0.0517 -0.558105,-0.15503 z m 1.384928,-2.18075 q 0.468533,0 0.740696,-0.32039 0.275607,-0.32039 0.275607,-0.8785 0,-0.55466 -0.275607,-0.87505 -0.272163,-0.32384 -0.740696,-0.32384 -0.468533,0 -0.74414,0.32384 -0.272163,0.32039 -0.272163,0.87505 0,0.55811 0.272163,0.8785 0.275607,0.32039 0.74414,0.32039 z"
         style="font-size:7.05555534px;stroke-width:0.26458332"
         id="path458"
         inkscape:connector-curvature="0" />
    </g>
    <g
       aria-label="2"
       style="font-style:normal;font-weight:normal;font-size:7.05555534px;line-height:1.25;font-family:sans-serif;letter-spacing:0px;word-spacing:0px;fill:#000000;fill-opacity:1;stroke:none;stroke-width:0.26458332"
       id="text424-8"
       transform="matrix(1.3294251,0,0,1.3294251,64.665379,25.273131)">
      <path
         d="m -24.642278,171.08697 h 2.428792 v 0.58567 h -3.26595 v -0.58567 q 0.396186,-0.40996 1.078315,-1.09898 0.685574,-0.69247 0.861273,-0.89228 0.334175,-0.37552 0.465088,-0.6339 0.134359,-0.26183 0.134359,-0.51332 0,-0.40997 -0.289388,-0.66835 -0.285943,-0.25838 -0.747586,-0.25838 -0.327284,0 -0.692464,0.11369 -0.361735,0.11369 -0.775146,0.34451 v -0.7028 q 0.420301,-0.16881 0.785481,-0.25494 0.365181,-0.0861 0.668349,-0.0861 0.799262,0 1.274685,0.39963 0.475423,0.39964 0.475423,1.06798 0,0.31695 -0.120578,0.6029 -0.117133,0.28249 -0.430637,0.66834 -0.08613,0.0999 -0.54777,0.57878 -0.461643,0.47542 -1.302246,1.33325 z"
         style="font-size:7.05555534px;stroke-width:0.26458332"
         id="path479-4"
         inkscape:connector-curvature="0" />
    </g>
    <g
       transform="matrix(1.3294251,0,0,1.3294251,6.2895961,23.837129)"
       aria-label="3"
       style="font-style:normal;font-weight:normal;font-size:7.05555534px;line-height:1.25;font-family:sans-serif;letter-spacing:0px;word-spacing:0px;fill:#000000;fill-opacity:1;stroke:none;stroke-width:0.26458332"
       id="text428-3">
      <path
         inkscape:connector-curvature="0"
         d="m 1.4186408,170.1831 q 0.4995389,0.1068 0.7785916,0.44442 0.2824978,0.33762 0.2824978,0.83371 0,0.76137 -0.5236545,1.17823 -0.5236545,0.41685 -1.48828118,0.41685 -0.32383897,0 -0.6683485,-0.0654 -0.34106445,-0.062 -0.70624456,-0.18948 v -0.6718 q 0.28938801,0.16881 0.63389755,0.25494 0.34450954,0.0861 0.72002494,0.0861 0.65456815,0 0.99563255,-0.25838 0.3445096,-0.25839 0.3445096,-0.75104 0,-0.45475 -0.3203939,-0.70969 -0.3169488,-0.25838 -0.88538953,-0.25838 h -0.5994466 v -0.57188 h 0.62700736 q 0.51331917,0 0.78548177,-0.20326 0.2721625,-0.20671 0.2721625,-0.59256 0,-0.39619 -0.2824978,-0.60634 -0.2790527,-0.21359 -0.80270723,-0.21359 -0.28594292,0 -0.61322698,0.062 -0.32728406,0.062 -0.72002494,0.19292 v -0.62011 q 0.39618597,-0.11025 0.74069551,-0.16537 0.34795464,-0.0551 0.65456812,-0.0551 0.79237192,0 1.25401472,0.36174 0.4616428,0.35829 0.4616428,0.97151 0,0.42719 -0.2446018,0.72347 -0.2446018,0.29284 -0.6959093,0.40652 z"
         style="font-size:7.05555534px;stroke-width:0.26458332"
         id="path476-1" />
    </g>
    <g
       transform="matrix(1.3294251,0,0,1.3294251,48.752747,-33.745318)"
       aria-label="4"
       style="font-style:normal;font-weight:normal;font-size:7.05555534px;line-height:1.25;font-family:sans-serif;letter-spacing:0px;word-spacing:0px;fill:#000000;fill-opacity:1;stroke:none;stroke-width:0.26458332"
       id="text432-4">
      <path
         inkscape:connector-curvature="0"
         d="m -11.133947,161.83992 -1.756999,2.74574 h 1.756999 z m -0.182591,-0.60634 h 0.875055 v 3.35208 h 0.733805 v 0.57877 h -0.733805 v 1.21268 h -0.692464 v -1.21268 h -2.321995 v -0.67179 z"
         style="font-size:7.05555534px;stroke-width:0.26458332"
         id="path473-9" />
    </g>
    <g
       transform="matrix(1.3294251,0,0,1.3294251,95.062243,81.187859)"
       aria-label="6"
       style="font-style:normal;font-weight:normal;font-size:7.05555534px;line-height:1.25;font-family:sans-serif;letter-spacing:0px;word-spacing:0px;fill:#000000;fill-opacity:1;stroke:none;stroke-width:0.26458332"
       id="text440-2">
      <path
         inkscape:connector-curvature="0"
         d="m 3.7731179,155.98591 q -0.468533,0 -0.7441406,0.3204 -0.2721625,0.32039 -0.2721625,0.8785 0,0.55466 0.2721625,0.8785 0.2756076,0.32039 0.7441406,0.32039 0.468533,0 0.7406955,-0.32039 0.2756076,-0.32384 0.2756076,-0.8785 0,-0.55811 -0.2756076,-0.8785 -0.2721625,-0.3204 -0.7406955,-0.3204 z m 1.3814832,-2.18074 v 0.6339 q -0.2618272,-0.12403 -0.5305446,-0.18949 -0.2652724,-0.0654 -0.5270996,-0.0654 -0.6890191,0 -1.0541992,0.46509 -0.361735,0.46508 -0.4134115,1.40559 0.2032607,-0.29972 0.5098741,-0.45819 0.3066135,-0.16192 0.6752387,-0.16192 0.7751465,0 1.2230089,0.47198 0.4513075,0.46853 0.4513075,1.27813 0,0.79237 -0.468533,1.27124 -0.4685329,0.47886 -1.2471245,0.47886 -0.8922797,0 -1.3642578,-0.68212 -0.471978,-0.68558 -0.471978,-1.98438 0,-1.21956 0.578776,-1.94303 0.578776,-0.72692 1.553738,-0.72692 0.2618272,0 0.5270996,0.0517 0.2687174,0.0517 0.5581054,0.15503 z"
         style="font-size:7.05555534px;stroke-width:0.26458332"
         id="path467-0" />
    </g>
    <g
       transform="matrix(1.3294251,0,0,1.3294251,97.739411,-26.064679)"
       aria-label="7"
       style="font-style:normal;font-weight:normal;font-size:7.05555534px;line-height:1.25;font-family:sans-serif;letter-spacing:0px;word-spacing:0px;fill:#000000;fill-opacity:1;stroke:none;stroke-width:0.26458332"
       id="text444-6">
      <path
         inkscape:connector-curvature="0"
         d="m -29.910594,175.19452 h 3.307291 v 0.29627 l -1.867241,4.84725 h -0.726916 l 1.756999,-4.55786 h -2.470133 z"
         style="font-size:7.05555534px;stroke-width:0.26458332"
         id="path464-8" />
    </g>
    <g
       aria-label="2"
       style="font-style:normal;font-weight:normal;font-size:7.05555534px;line-height:1.25;font-family:sans-serif;letter-spacing:0px;word-spacing:0px;fill:#000000;fill-opacity:1;stroke:none;stroke-width:0.26458332"
       id="text424-9"
       transform="matrix(1.3294251,0,0,1.3294251,118.6171,12.346894)">
      <path
         d="m -24.642278,171.08697 h 2.428792 v 0.58567 h -3.26595 v -0.58567 q 0.396186,-0.40996 1.078315,-1.09898 0.685574,-0.69247 0.861273,-0.89228 0.334175,-0.37552 0.465088,-0.6339 0.134359,-0.26183 0.134359,-0.51332 0,-0.40997 -0.289388,-0.66835 -0.285943,-0.25838 -0.747586,-0.25838 -0.327284,0 -0.692464,0.11369 -0.361735,0.11369 -0.775146,0.34451 v -0.7028 q 0.420301,-0.16881 0.785481,-0.25494 0.365181,-0.0861 0.668349,-0.0861 0.799262,0 1.274685,0.39963 0.475423,0.39964 0.475423,1.06798 0,0.31695 -0.120578,0.6029 -0.117133,0.28249 -0.430637,0.66834 -0.08613,0.0999 -0.54777,0.57878 -0.461643,0.47542 -1.302246,1.33325 z"
         style="font-size:7.05555534px;stroke-width:0.26458332"
         id="path479-2"
         inkscape:connector-curvature="0" />
    </g>
    <g
       transform="matrix(1.3294251,0,0,1.3294251,119.40047,55.349923)"
       aria-label="9"
       style="font-style:normal;font-weight:normal;font-size:7.05555534px;line-height:1.25;font-family:sans-serif;letter-spacing:0px;word-spacing:0px;fill:#000000;fill-opacity:1;stroke:none;stroke-width:0.26458332"
       id="text456-6">
      <path
         inkscape:connector-curvature="0"
         d="m -46.082199,169.47972 v -0.6339 q 0.261827,0.12403 0.530545,0.18948 0.268717,0.0655 0.527099,0.0655 0.689019,0 1.050754,-0.46164 0.36518,-0.46509 0.416857,-1.40905 -0.199816,0.29628 -0.506429,0.45475 -0.306614,0.15848 -0.678684,0.15848 -0.771701,0 -1.223009,-0.46509 -0.447862,-0.46853 -0.447862,-1.27813 0,-0.79237 0.468533,-1.27124 0.468533,-0.47887 1.247124,-0.47887 0.89228,0 1.360813,0.68558 0.471978,0.68213 0.471978,1.98437 0,1.21612 -0.578776,1.94304 -0.575331,0.72347 -1.550293,0.72347 -0.261827,0 -0.530545,-0.0517 -0.268717,-0.0517 -0.558105,-0.15503 z m 1.384928,-2.18075 q 0.468533,0 0.740696,-0.32039 0.275607,-0.32039 0.275607,-0.8785 0,-0.55466 -0.275607,-0.87505 -0.272163,-0.32384 -0.740696,-0.32384 -0.468533,0 -0.74414,0.32384 -0.272163,0.32039 -0.272163,0.87505 0,0.55811 0.272163,0.8785 0.275607,0.32039 0.74414,0.32039 z"
         style="font-size:7.05555534px;stroke-width:0.26458332"
         id="path458-6" />
    </g>
    <g
       aria-label="8"
       style="font-style:normal;font-weight:normal;font-size:7.05555534px;line-height:1.25;font-family:sans-serif;letter-spacing:0px;word-spacing:0px;fill:#000000;fill-opacity:1;stroke:none;stroke-width:0.26458332"
       id="text448-5"
       transform="matrix(1.3294251,0,0,1.3294251,122.24077,66.694968)">
      <path
         d="m -26.80238,157.99714 q -0.496094,0 -0.782037,0.26527 -0.282498,0.26527 -0.282498,0.73036 0,0.46509 0.282498,0.73036 0.285943,0.26528 0.782037,0.26528 0.496093,0 0.782036,-0.26528 0.285943,-0.26871 0.285943,-0.73036 0,-0.46509 -0.285943,-0.73036 -0.282497,-0.26527 -0.782036,-0.26527 z m -0.69591,-0.29628 q -0.447862,-0.11024 -0.699354,-0.41685 -0.248047,-0.30662 -0.248047,-0.74759 0,-0.61667 0.437527,-0.97496 0.440973,-0.35829 1.205784,-0.35829 0.768256,0 1.205783,0.35829 0.437527,0.35829 0.437527,0.97496 0,0.44097 -0.251492,0.74759 -0.248047,0.30661 -0.692464,0.41685 0.502984,0.11713 0.782037,0.4582 0.282498,0.34106 0.282498,0.83371 0,0.74759 -0.458198,1.14722 -0.454753,0.39963 -1.305691,0.39963 -0.850939,0 -1.309137,-0.39963 -0.454752,-0.39963 -0.454752,-1.14722 0,-0.49265 0.282498,-0.83371 0.282497,-0.34107 0.785481,-0.4582 z m -0.254937,-1.09898 q 0,0.39963 0.248047,0.62356 0.251492,0.22393 0.7028,0.22393 0.447862,0 0.699354,-0.22393 0.254937,-0.22393 0.254937,-0.62356 0,-0.39963 -0.254937,-0.62357 -0.251492,-0.22393 -0.699354,-0.22393 -0.451308,0 -0.7028,0.22393 -0.248047,0.22394 -0.248047,0.62357 z"
         style="font-size:7.05555534px;stroke-width:0.26458332"
         id="path461-0"
         inkscape:connector-curvature="0" />
    </g>
    <g
       transform="matrix(1.3294251,0,0,1.3294251,61.615702,19.819821)"
       aria-label="4"
       style="font-style:normal;font-weight:normal;font-size:7.05555534px;line-height:1.25;font-family:sans-serif;letter-spacing:0px;word-spacing:0px;fill:#000000;fill-opacity:1;stroke:none;stroke-width:0.26458332"
       id="text432-48">
      <path
         inkscape:connector-curvature="0"
         d="m -11.133947,161.83992 -1.756999,2.74574 h 1.756999 z m -0.182591,-0.60634 h 0.875055 v 3.35208 h 0.733805 v 0.57877 h -0.733805 v 1.21268 h -0.692464 v -1.21268 h -2.321995 v -0.67179 z"
         style="font-size:7.05555534px;stroke-width:0.26458332"
         id="path473-7" />
    </g>
    <g
       aria-label="5"
       style="font-style:normal;font-weight:normal;font-size:7.05555534px;line-height:1.25;font-family:sans-serif;letter-spacing:0px;word-spacing:0px;fill:#000000;fill-opacity:1;stroke:none;stroke-width:0.26458332"
       id="text436-1"
       transform="matrix(1.3294251,0,0,1.3294251,119.09005,-11.502512)">
      <path
         d="m -16.569433,174.55262 h 2.731961 v 0.58567 h -2.094618 v 1.26091 q 0.151584,-0.0517 0.303168,-0.0758 0.151584,-0.0276 0.303168,-0.0276 0.861274,0 1.364258,0.47198 0.502984,0.47198 0.502984,1.27813 0,0.83027 -0.516764,1.29191 -0.516765,0.4582 -1.457276,0.4582 -0.323839,0 -0.661458,-0.0551 -0.334174,-0.0551 -0.692464,-0.16537 v -0.69935 q 0.310059,0.16881 0.640788,0.25149 0.330729,0.0827 0.699354,0.0827 0.596002,0 0.943956,-0.3135 0.347955,-0.3135 0.347955,-0.85094 0,-0.53743 -0.347955,-0.85094 -0.347954,-0.3135 -0.943956,-0.3135 -0.279053,0 -0.558105,0.062 -0.275608,0.062 -0.564996,0.19293 z"
         style="font-size:7.05555534px;stroke-width:0.26458332"
         id="path470-7"
         inkscape:connector-curvature="0" />
    </g>
    <g
       transform="matrix(1.3294251,0,0,1.3294251,148.23424,32.830944)"
       aria-label="1"
       style="font-style:normal;font-weight:normal;font-size:7.05555534px;line-height:1.25;font-family:sans-serif;letter-spacing:0px;word-spacing:0px;fill:#000000;fill-opacity:1;stroke:none;stroke-width:0.26458332"
       id="text420-2">
      <path
         inkscape:connector-curvature="0"
         d="m -38.119247,175.74061 h 1.136882 v -3.92396 l -1.236789,0.24805 v -0.6339 l 1.229899,-0.24805 h 0.695909 v 4.55786 h 1.136881 v 0.58567 h -2.962782 z"
         style="font-size:7.05555534px;stroke-width:0.26458332"
         id="path482-7" />
    </g>
    <g
       transform="matrix(1.3294251,0,0,1.3294251,18.552006,-2.7953102)"
       aria-label="3"
       style="font-style:normal;font-weight:normal;font-size:7.05555534px;line-height:1.25;font-family:sans-serif;letter-spacing:0px;word-spacing:0px;fill:#000000;fill-opacity:1;stroke:none;stroke-width:0.26458332"
       id="text428-2">
      <path
         inkscape:connector-curvature="0"
         d="m 1.4186408,170.1831 q 0.4995389,0.1068 0.7785916,0.44442 0.2824978,0.33762 0.2824978,0.83371 0,0.76137 -0.5236545,1.17823 -0.5236545,0.41685 -1.48828118,0.41685 -0.32383897,0 -0.6683485,-0.0654 -0.34106445,-0.062 -0.70624456,-0.18948 v -0.6718 q 0.28938801,0.16881 0.63389755,0.25494 0.34450954,0.0861 0.72002494,0.0861 0.65456815,0 0.99563255,-0.25838 0.3445096,-0.25839 0.3445096,-0.75104 0,-0.45475 -0.3203939,-0.70969 -0.3169488,-0.25838 -0.88538953,-0.25838 h -0.5994466 v -0.57188 h 0.62700736 q 0.51331917,0 0.78548177,-0.20326 0.2721625,-0.20671 0.2721625,-0.59256 0,-0.39619 -0.2824978,-0.60634 -0.2790527,-0.21359 -0.80270723,-0.21359 -0.28594292,0 -0.61322698,0.062 -0.32728406,0.062 -0.72002494,0.19292 v -0.62011 q 0.39618597,-0.11025 0.74069551,-0.16537 0.34795464,-0.0551 0.65456812,-0.0551 0.79237192,0 1.25401472,0.36174 0.4616428,0.35829 0.4616428,0.97151 0,0.42719 -0.2446018,0.72347 -0.2446018,0.29284 -0.6959093,0.40652 z"
         style="font-size:7.05555534px;stroke-width:0.26458332"
         id="path476-2" />
    </g>
    <g
       transform="matrix(1.3294251,0,0,1.3294251,172.54145,-37.764996)"
       aria-label="9"
       style="font-style:normal;font-weight:normal;font-size:7.05555534px;line-height:1.25;font-family:sans-serif;letter-spacing:0px;word-spacing:0px;fill:#000000;fill-opacity:1;stroke:none;stroke-width:0.26458332"
       id="text456-61">
      <path
         inkscape:connector-curvature="0"
         d="m -46.082199,169.47972 v -0.6339 q 0.261827,0.12403 0.530545,0.18948 0.268717,0.0655 0.527099,0.0655 0.689019,0 1.050754,-0.46164 0.36518,-0.46509 0.416857,-1.40905 -0.199816,0.29628 -0.506429,0.45475 -0.306614,0.15848 -0.678684,0.15848 -0.771701,0 -1.223009,-0.46509 -0.447862,-0.46853 -0.447862,-1.27813 0,-0.79237 0.468533,-1.27124 0.468533,-0.47887 1.247124,-0.47887 0.89228,0 1.360813,0.68558 0.471978,0.68213 0.471978,1.98437 0,1.21612 -0.578776,1.94304 -0.575331,0.72347 -1.550293,0.72347 -0.261827,0 -0.530545,-0.0517 -0.268717,-0.0517 -0.558105,-0.15503 z m 1.384928,-2.18075 q 0.468533,0 0.740696,-0.32039 0.275607,-0.32039 0.275607,-0.8785 0,-0.55466 -0.275607,-0.87505 -0.272163,-0.32384 -0.740696,-0.32384 -0.468533,0 -0.74414,0.32384 -0.272163,0.32039 -0.272163,0.87505 0,0.55811 0.272163,0.8785 0.275607,0.32039 0.74414,0.32039 z"
         style="font-size:7.05555534px;stroke-width:0.26458332"
         id="path458-0" />
    </g>
    <g
       transform="matrix(1.3294251,0,0,1.3294251,68.295379,55.308679)"
       aria-label="6"
       style="font-style:normal;font-weight:normal;font-size:7.05555534px;line-height:1.25;font-family:sans-serif;letter-spacing:0px;word-spacing:0px;fill:#000000;fill-opacity:1;stroke:none;stroke-width:0.26458332"
       id="text440-6">
      <path
         inkscape:connector-curvature="0"
         d="m 3.7731179,155.98591 q -0.468533,0 -0.7441406,0.3204 -0.2721625,0.32039 -0.2721625,0.8785 0,0.55466 0.2721625,0.8785 0.2756076,0.32039 0.7441406,0.32039 0.468533,0 0.7406955,-0.32039 0.2756076,-0.32384 0.2756076,-0.8785 0,-0.55811 -0.2756076,-0.8785 -0.2721625,-0.3204 -0.7406955,-0.3204 z m 1.3814832,-2.18074 v 0.6339 q -0.2618272,-0.12403 -0.5305446,-0.18949 -0.2652724,-0.0654 -0.5270996,-0.0654 -0.6890191,0 -1.0541992,0.46509 -0.361735,0.46508 -0.4134115,1.40559 0.2032607,-0.29972 0.5098741,-0.45819 0.3066135,-0.16192 0.6752387,-0.16192 0.7751465,0 1.2230089,0.47198 0.4513075,0.46853 0.4513075,1.27813 0,0.79237 -0.468533,1.27124 -0.4685329,0.47886 -1.2471245,0.47886 -0.8922797,0 -1.3642578,-0.68212 -0.471978,-0.68558 -0.471978,-1.98438 0,-1.21956 0.578776,-1.94303 0.578776,-0.72692 1.553738,-0.72692 0.2618272,0 0.5270996,0.0517 0.2687174,0.0517 0.5581054,0.15503 z"
         style="font-size:7.05555534px;stroke-width:0.26458332"
         id="path467-1" />
    </g>
    <g
       transform="matrix(1.3294251,0,0,1.3294251,69.443639,-33.296878)"
       aria-label="1"
       style="font-style:normal;font-weight:normal;font-size:7.05555534px;line-height:1.25;font-family:sans-serif;letter-spacing:0px;word-spacing:0px;fill:#000000;fill-opacity:1;stroke:none;stroke-width:0.26458332"
       id="text420-4">
      <path
         inkscape:connector-curvature="0"
         d="m -38.119247,175.74061 h 1.136882 v -3.92396 l -1.236789,0.24805 v -0.6339 l 1.229899,-0.24805 h 0.695909 v 4.55786 h 1.136881 v 0.58567 h -2.962782 z"
         style="font-size:7.05555534px;stroke-width:0.26458332"
         id="path482-9" />
    </g>
    <g
       aria-label="1"
       style="font-style:normal;font-weight:normal;font-size:7.05555534px;line-height:1.25;font-family:sans-serif;letter-spacing:0px;word-spacing:0px;fill:#000000;fill-opacity:1;stroke:none;stroke-width:0.26458332"
       id="text386"
       transform="matrix(1.3294251,0,0,1.3294251,0,-97.839259)">
      <path
         d="m 3.4392398,213.63443 h 1.1368815 v -3.92397 l -1.2367892,0.24805 v -0.6339 l 1.229899,-0.24804 h 0.6959093 v 4.55786 h 1.1368815 v 0.58566 H 3.4392398 Z"
         style="font-size:7.05555534px;stroke-width:0.26458332"
         id="path388"
         inkscape:connector-curvature="0" />
    </g>
  </g>
</svg>
